<mxfile host="app.diagrams.net" modified="2023-12-25T10:02:20.768Z" agent="Mozilla/5.0 (Macintosh; Intel Mac OS X 10_15_7) AppleWebKit/537.36 (KHTML, like Gecko) Chrome/120.0.0.0 Safari/537.36" version="22.1.11" etag="TbrmmNP-7OVtIBQgl2cf" type="github">
  <diagram name="Page-1" id="1FMqu7ElR58q6P9ZsLgP">
    <mxGraphModel>
      <root>
        <mxCell id="0" />
        <mxCell id="1" parent="0" />
      </root>
    </mxGraphModel>
  </diagram>
</mxfile>
